<svg width="40" height="47" viewBox="0 0 40 47" fill="none" xmlns="http://www.w3.org/2000/svg">
<path d="M17.7722 36.6197C15.253 36.5552 13.5966 32.1799 13.5966 32.1799V22.612V21.6483V14.6616C13.5966 14.6616 14.6318 9.84327 17.7722 9.84326H22.4309C25.6748 9.84326 26.6065 14.6616 26.6065 14.6616V21.6483V22.612V32.1799C26.6065 32.1799 25.1226 36.6197 22.4309 36.6197C19.7392 36.6197 20.2913 36.6841 17.7722 36.6197Z" fill="url(#paint0_linear)"/>
<path d="M23.8974 20.6501H26.572V22.2413H23.8974C23.8974 22.2413 23.3914 22.0337 23.3914 21.4457C23.3914 20.8577 23.8974 20.6501 23.8974 20.6501Z" fill="url(#paint1_linear)"/>
<path d="M16.0904 20.7193H13.5966V22.2413H16.0904C16.0904 22.2413 16.5242 21.9991 16.5242 21.4457C16.5242 20.8923 16.0904 20.7193 16.0904 20.7193Z" fill="url(#paint2_linear)"/>
<path d="M16.0904 23.279H13.5966V24.9047H16.0904C16.0904 24.9047 16.5242 24.7663 16.5242 24.1264C16.5242 23.4865 16.0904 23.279 16.0904 23.279Z" fill="url(#paint3_linear)"/>
<path d="M16.0904 25.8732H13.5966V27.5335H16.0904C16.0904 27.5335 16.5242 27.2568 16.5242 26.7034C16.5242 26.1499 16.0904 25.8732 16.0904 25.8732Z" fill="url(#paint4_linear)"/>
<path d="M23.8974 25.8732H26.572V27.5335H23.8974C23.8974 27.5335 23.3914 27.326 23.3914 26.7034C23.3914 26.0808 23.8974 25.8732 23.8974 25.8732Z" fill="url(#paint5_linear)"/>
<path d="M26.572 23.279V24.9047H23.8974C23.8974 24.9047 23.3914 24.8009 23.3914 24.1264C23.3914 23.4519 23.8974 23.279 23.8974 23.279H26.572Z" fill="url(#paint6_linear)"/>
<path d="M21.8782 30.6655C21.9137 29.1168 20.2913 28.8414 20.1373 28.8414C19.9833 28.8414 18.2898 28.9103 18.2898 30.6655C18.2898 32.4208 19.9488 32.4208 20.1373 32.4208C20.3258 32.4208 21.8427 32.2143 21.8782 30.6655Z" fill="url(#paint7_linear)" fill-opacity="0.5"/>
<path d="M19.8428 0C4.86646 0 3.10583 11.9427 3.10583 11.9427L4.24398 12.1148C4.24398 12.1148 5.62503 1.23901 19.8428 1.17018C34.0605 1.10134 35.855 12.1148 35.855 12.1148L37.0628 11.9427C37.0628 11.9427 34.8191 0 19.8428 0Z" fill="url(#paint8_linear)"/>
<path d="M38.7909 13.2536C38.7219 11.7049 36.7893 11.8426 36.4097 11.8426L35.2019 12.0146C35.2019 12.0146 34.4577 12.29 34.3737 13.2536C34.2897 14.2173 32.9933 28.9478 33.0624 29.4296C33.1314 29.9115 33.442 30.6686 34.2702 30.6686H36.3752C37.307 30.6686 37.4105 29.5329 37.4105 29.5329L37.6859 27.812C37.6859 27.812 39.136 27.7432 39.2395 26.4698C39.343 25.1963 40.0332 17.5214 39.9987 16.4544C39.9642 15.3875 38.7909 15.181 38.7909 15.181C38.7909 15.181 38.8599 14.8024 38.7909 13.2536Z" fill="#494D4B"/>
<path d="M7.07504 29.1511C7.07506 27.8777 6.04074 14.3519 5.93557 13.2505C5.8304 12.1492 4.83128 12.0115 4.83128 12.0115L3.69313 11.8394H2.48533C1.48456 11.8394 1.27751 13.3538 1.27751 13.3538V15.0746C1.27751 15.0746 -0.0338539 15.2811 0.000669901 16.5545C0.0351937 17.828 0.690865 24.849 0.79438 26.3634C0.897895 27.8777 2.24309 27.8089 2.24309 27.8089C2.24309 27.8089 2.4163 29.0479 2.48533 29.4265C2.55436 29.8051 3.03746 30.6311 3.55511 30.6311H5.66017C5.66017 30.6311 7.07503 30.4246 7.07504 29.1511Z" fill="#494D4B"/>
<path d="M11.388 33.9702C11.3561 32.3182 11.319 22.3029 11.319 22.3029L12.4578 22.3029C12.4578 22.3029 12.8374 22.2685 12.8374 22.6815C12.8374 23.0945 12.4578 23.0945 12.4578 23.0945C12.4578 23.0945 12.4578 30.735 12.5958 33.5228C12.7338 36.3106 16.2192 38.3068 17.4961 38.3068H22.6725C23.9838 38.3068 27.7108 35.9664 27.7108 33.041C27.7108 30.1155 27.6763 23.0945 27.6763 23.0945C27.6763 23.0945 27.2967 23.0256 27.2967 22.6815C27.2967 22.3373 27.6763 22.3029 27.6763 22.3029H28.8841C28.8841 22.3029 28.8179 31.389 28.7116 33.9702C28.6052 36.5515 24.812 39.4425 23.0866 39.4425H20.7055V42.5745H25.2607C26.641 42.5745 27.0206 44.3297 27.0206 44.3297V46.1538H13.148V44.3297C13.148 44.3297 13.424 42.5745 15.0114 42.5745H19.4631V39.4425H17.0475C14.4938 39.4425 11.4199 35.6223 11.388 33.9702Z" fill="#494D4B"/>
<defs>
<linearGradient id="paint0_linear" x1="10.8013" y1="23.2659" x2="29.1602" y2="23.2659" gradientUnits="userSpaceOnUse">
<stop offset="0.0104167" stop-color="#9580FF"/>
<stop offset="0.371119" stop-color="#9580FF" stop-opacity="0.25"/>
<stop offset="0.493618" stop-color="#80FFEA" stop-opacity="0.25"/>
<stop offset="0.994792" stop-color="#9580FF"/>
</linearGradient>
<linearGradient id="paint1_linear" x1="6.5912" y1="25.3653" x2="35.2338" y2="25.5037" gradientUnits="userSpaceOnUse">
<stop stop-color="#494D4B"/>
<stop offset="0.473958" stop-color="#494D4B" stop-opacity="0.25"/>
<stop offset="1" stop-color="#494D4B"/>
</linearGradient>
<linearGradient id="paint2_linear" x1="6.5912" y1="25.3653" x2="35.2338" y2="25.5037" gradientUnits="userSpaceOnUse">
<stop stop-color="#494D4B"/>
<stop offset="0.473958" stop-color="#494D4B" stop-opacity="0.25"/>
<stop offset="1" stop-color="#494D4B"/>
</linearGradient>
<linearGradient id="paint3_linear" x1="6.5912" y1="25.3653" x2="35.2338" y2="25.5037" gradientUnits="userSpaceOnUse">
<stop stop-color="#494D4B"/>
<stop offset="0.473958" stop-color="#494D4B" stop-opacity="0.25"/>
<stop offset="1" stop-color="#494D4B"/>
</linearGradient>
<linearGradient id="paint4_linear" x1="6.5912" y1="25.3653" x2="35.2338" y2="25.5037" gradientUnits="userSpaceOnUse">
<stop stop-color="#494D4B"/>
<stop offset="0.473958" stop-color="#494D4B" stop-opacity="0.25"/>
<stop offset="1" stop-color="#494D4B"/>
</linearGradient>
<linearGradient id="paint5_linear" x1="6.5912" y1="25.3653" x2="35.2338" y2="25.5037" gradientUnits="userSpaceOnUse">
<stop stop-color="#494D4B"/>
<stop offset="0.473958" stop-color="#494D4B" stop-opacity="0.25"/>
<stop offset="1" stop-color="#494D4B"/>
</linearGradient>
<linearGradient id="paint6_linear" x1="6.5912" y1="25.3653" x2="35.2338" y2="25.5037" gradientUnits="userSpaceOnUse">
<stop stop-color="#494D4B"/>
<stop offset="0.473958" stop-color="#494D4B" stop-opacity="0.25"/>
<stop offset="1" stop-color="#494D4B"/>
</linearGradient>
<linearGradient id="paint7_linear" x1="16.7369" y1="30.6311" x2="24.743" y2="30.6311" gradientUnits="userSpaceOnUse">
<stop stop-color="#F31919"/>
<stop offset="1" stop-color="#FE3D3D"/>
</linearGradient>
<linearGradient id="paint8_linear" x1="-2.24308" y1="6.05738" x2="43.1364" y2="6.05738" gradientUnits="userSpaceOnUse">
<stop stop-color="#393939"/>
<stop offset="1" stop-color="#80FFEA"/>
</linearGradient>
</defs>
</svg>
